<svg id="eGYctV4rAMm1" xmlns="http://www.w3.org/2000/svg" xmlns:xlink="http://www.w3.org/1999/xlink" viewBox="0 0 343.200000 94.400000" shape-rendering="geometricPrecision" text-rendering="geometricPrecision"><g id="eGYctV4rAMm2"><g id="eGYctV4rAMm3" transform="matrix(1 0 0 1 39.75000153000002 0)" opacity="0"><g id="eGYctV4rAMm4"><g id="eGYctV4rAMm5"><g id="eGYctV4rAMm6" opacity="0"><path id="eGYctV4rAMm7" d="M35.800000,52.400000C25.900000,52.400000,17.800000,44.300000,17.800000,34.400000C17.800000,24.500000,25.900000,16.400000,35.800000,16.400000C45.700000,16.400000,53.800000,24.500000,53.800000,34.400000C53.800000,44.300000,45.700000,52.400000,35.800000,52.400000ZM35.800000,16.900000C26.200000,16.900000,18.300000,24.800000,18.300000,34.400000C18.300000,44,26.200000,51.900000,35.800000,51.900000C45.400000,51.900000,53.300000,44,53.300000,34.400000C53.300000,24.800000,45.400000,16.900000,35.800000,16.900000Z" fill="rgb(255,255,255)" stroke="none" stroke-width="1"/></g><g id="eGYctV4rAMm8" opacity="0"><path id="eGYctV4rAMm9" d="M42.400000,65.700000C28.800000,65.700000,17.800000,54.600000,17.800000,41.100000C17.800000,27.600000,28.900000,16.500000,42.400000,16.500000C55.900000,16.500000,67,27.600000,67,41.100000C67,54.600000,56,65.700000,42.400000,65.700000ZM42.400000,16.900000C29.100000,16.900000,18.300000,27.700000,18.300000,41C18.300000,54.300000,29.100000,65.100000,42.400000,65.100000C55.700000,65.100000,66.500000,54.300000,66.500000,41C66.600000,27.800000,55.700000,16.900000,42.400000,16.900000Z" fill="rgb(255,255,255)" stroke="none" stroke-width="1"/></g><g id="eGYctV4rAMm10" opacity="0"><path id="eGYctV4rAMm11" d="M51.100000,83C32.700000,83,17.800000,68,17.800000,49.700000C17.800000,31.400000,32.700000,16.400000,51.100000,16.400000C69.500000,16.400000,84.400000,31.300000,84.400000,49.700000C84.300000,68,69.400000,83,51.100000,83ZM51.100000,16.900000C33,16.900000,18.300000,31.600000,18.300000,49.700000C18.300000,67.800000,33,82.500000,51.100000,82.500000C69.200000,82.500000,83.900000,67.800000,83.900000,49.700000C83.900000,31.600000,69.100000,16.900000,51.100000,16.900000Z" fill="rgb(255,255,255)" stroke="none" stroke-width="1"/></g><g id="eGYctV4rAMm12" opacity="0"><path id="eGYctV4rAMm13" d="M31.200000,43.200000C23.800000,43.200000,17.800000,37.200000,17.800000,29.800000C17.800000,22.400000,23.800000,16.400000,31.200000,16.400000C38.600000,16.400000,44.600000,22.400000,44.600000,29.800000C44.600000,37.200000,38.500000,43.200000,31.200000,43.200000ZM31.200000,16.900000C24.100000,16.900000,18.300000,22.700000,18.300000,29.800000C18.300000,36.900000,24.100000,42.700000,31.200000,42.700000C38.300000,42.700000,44,36.900000,44,29.800000C44,22.700000,38.300000,16.900000,31.200000,16.900000Z" fill="rgb(255,255,255)" stroke="none" stroke-width="1"/></g></g><g id="eGYctV4rAMm14" opacity="0"><path id="eGYctV4rAMm15" d="M57.200000,41.500000C56.900000,41.500000,56.600000,41.500000,56.400000,41.500000C37.100000,41,21.800000,20.900000,21.600000,20.700000L22,20.400000C22.200000,20.600000,37.300000,40.500000,56.400000,41C66.300000,41.300000,75.500000,36.400000,83.900000,26.500000L84.300000,26.800000C76,36.600000,66.900000,41.500000,57.200000,41.500000Z" fill="rgb(255,255,255)" stroke="none" stroke-width="1"/></g></g><g id="eGYctV4rAMm16"><path id="eGYctV4rAMm17" d="M48.500000,88.800000C25.500000,88.800000,6.900000,70.100000,6.900000,47.200000C6.900000,24.200000,25.600000,5.600000,48.500000,5.600000C71.400000,5.600000,90.100000,24.300000,90.100000,47.200000C90.200000,70.200000,71.500000,88.800000,48.500000,88.800000ZM48.500000,6.600000C26.100000,6.600000,7.900000,24.800000,7.900000,47.200000C7.900000,69.600000,26.100000,87.800000,48.500000,87.800000C70.900000,87.800000,89.100000,69.600000,89.100000,47.200000C89.100000,24.800000,71,6.600000,48.500000,6.600000Z" fill="rgb(255,255,255)" stroke="none" stroke-width="1"/></g></g><g id="eGYctV4rAMm18" transform="matrix(1 0 0 1 -66.69999846999997 0)" opacity="0"><g id="eGYctV4rAMm19"><path id="eGYctV4rAMm20" d="M111.700000,38.700000L111.700000,44.400000L120.900000,44.400000L120.900000,46.600000L111.700000,46.600000L111.700000,54.800000L109.200000,54.800000L109.200000,36.500000L121.100000,36.500000L121.100000,38.700000L111.700000,38.700000Z" fill="rgb(255,255,255)" stroke="none" stroke-width="1"/><path id="eGYctV4rAMm21" d="M126.800000,54.800000L126.800000,36.500000L136.100000,36.500000C137.700000,36.500000,139,36.800000,139.800000,37.300000C140.500000,37.800000,141,38.500000,141.300000,39.500000C141.500000,40.100000,141.500000,40.900000,141.500000,41.800000C141.500000,43.400000,141.300000,44.500000,140.900000,45.200000C140.500000,46,139.700000,46.400000,138.500000,46.500000C140.300000,46.600000,141.200000,47.800000,141.200000,50L141.200000,54.800000L138.700000,54.800000L138.700000,50.500000C138.700000,49.400000,138.400000,48.600000,137.900000,48.200000C137.400000,47.800000,136.600000,47.600000,135.500000,47.700000L129.200000,47.700000L129.200000,54.900000L126.800000,54.900000ZM129.300000,45.400000L135.400000,45.400000C136.600000,45.400000,137.500000,45.200000,138.100000,44.900000C138.700000,44.500000,139.100000,43.700000,139.100000,42.500000C139.100000,40.900000,139,39.900000,138.700000,39.400000C138.300000,38.900000,137.500000,38.600000,136.200000,38.600000L129.400000,38.600000L129.400000,45.400000Z" fill="rgb(255,255,255)" stroke="none" stroke-width="1"/><path id="eGYctV4rAMm22" d="M159.300000,51L150.300000,51L148.900000,54.800000L146.300000,54.800000L153.300000,36.500000L156.500000,36.500000L163.600000,54.800000L161,54.800000L159.300000,51ZM158.500000,48.900000L154.800000,39.100000L151.100000,48.900000L158.500000,48.900000Z" fill="rgb(255,255,255)" stroke="none" stroke-width="1"/><path id="eGYctV4rAMm23" d="M189.100000,36.500000L189.100000,54.800000L186.600000,54.800000L186.600000,38.800000L180,54.800000L177.600000,54.800000L171,38.800000L171,54.800000L168.500000,54.800000L168.500000,36.500000L172.400000,36.500000L178.800000,52.200000L185.200000,36.500000L189.100000,36.500000Z" fill="rgb(255,255,255)" stroke="none" stroke-width="1"/><path id="eGYctV4rAMm24" d="M198.700000,38.700000L198.700000,44.300000L208.300000,44.300000L208.300000,46.500000L198.700000,46.500000L198.700000,52.700000L208.700000,52.700000L208.700000,54.900000L196.300000,54.900000L196.300000,36.500000L208.700000,36.500000L208.700000,38.700000L198.700000,38.700000Z" fill="rgb(255,255,255)" stroke="none" stroke-width="1"/><path id="eGYctV4rAMm25" d="M228.200000,41.800000L225.700000,41.800000C225.700000,40.900000,225.700000,40.300000,225.600000,40C225.500000,39.300000,225,38.900000,224.300000,38.700000C223.800000,38.600000,223,38.500000,221.800000,38.500000C220.100000,38.500000,219.100000,38.500000,218.600000,38.600000C217.700000,38.700000,217.100000,39.100000,216.900000,39.800000C216.800000,40.200000,216.700000,40.700000,216.700000,41.400000C216.700000,42.200000,216.800000,42.900000,217,43.300000C217.200000,43.800000,217.800000,44.100000,218.700000,44.200000C219,44.200000,220,44.300000,221.700000,44.400000C223.500000,44.500000,224.800000,44.600000,225.400000,44.700000C226.700000,45,227.600000,45.600000,228.100000,46.600000C228.400000,47.200000,228.600000,48.300000,228.600000,49.600000C228.600000,51.600000,228.300000,52.900000,227.600000,53.700000C226.900000,54.500000,226,54.900000,224.700000,55C223.700000,55.100000,222.500000,55.100000,220.800000,55.100000C218.800000,55.100000,217.500000,55,216.800000,54.800000C215.200000,54.300000,214.300000,53.100000,214.100000,51.200000C214,50.800000,214,50,214,48.900000L216.500000,48.900000C216.500000,49.300000,216.500000,49.500000,216.500000,49.600000C216.500000,50.500000,216.600000,51.200000,216.700000,51.600000C216.800000,52,217.100000,52.300000,217.400000,52.600000C217.700000,52.800000,218.200000,52.900000,218.800000,52.900000C219.500000,52.900000,220.400000,52.900000,221.400000,52.900000C222.800000,52.900000,223.700000,52.800000,224.300000,52.700000C224.900000,52.600000,225.300000,52.400000,225.500000,52.100000C225.800000,51.700000,226,50.800000,226,49.300000C226,48.600000,225.900000,48.100000,225.800000,47.700000C225.600000,47.200000,225.100000,46.900000,224.200000,46.800000C223.800000,46.700000,222.800000,46.700000,221.100000,46.600000C219.500000,46.500000,218.400000,46.500000,218,46.400000C216.600000,46.200000,215.600000,45.700000,215,44.800000C214.400000,44.100000,214.200000,43,214.200000,41.500000C214.200000,39.400000,214.700000,37.900000,215.600000,37.200000C216.300000,36.600000,217.300000,36.300000,218.400000,36.200000C219.200000,36.100000,220.200000,36.100000,221.300000,36.100000C223.400000,36.100000,224.800000,36.200000,225.600000,36.500000C227.200000,37,228,38.300000,228.200000,40.300000C228.200000,40.600000,228.200000,41.100000,228.200000,41.800000Z" fill="rgb(255,255,255)" stroke="none" stroke-width="1"/><path id="eGYctV4rAMm26" d="M250.200000,36.500000L250.200000,54.800000L247.700000,54.800000L247.700000,46.500000L237.200000,46.500000L237.200000,54.800000L234.700000,54.800000L234.700000,36.500000L237.200000,36.500000L237.200000,44.400000L247.700000,44.400000L247.700000,36.500000L250.200000,36.500000Z" fill="rgb(255,255,255)" stroke="none" stroke-width="1"/><path id="eGYctV4rAMm27" d="M259.700000,36.500000L259.700000,54.800000L257.200000,54.800000L257.200000,36.500000L259.700000,36.500000Z" fill="rgb(255,255,255)" stroke="none" stroke-width="1"/><path id="eGYctV4rAMm28" d="M269.300000,38.700000L269.300000,44.400000L278.500000,44.400000L278.500000,46.600000L269.300000,46.600000L269.300000,54.800000L266.800000,54.800000L266.800000,36.500000L278.700000,36.500000L278.700000,38.700000L269.300000,38.700000Z" fill="rgb(255,255,255)" stroke="none" stroke-width="1"/><path id="eGYctV4rAMm29" d="M291.300000,38.800000L291.300000,54.800000L288.800000,54.800000L288.800000,38.800000L282.700000,38.800000L282.700000,36.400000L297.300000,36.400000L297.300000,38.800000L291.300000,38.800000Z" fill="rgb(255,255,255)" stroke="none" stroke-width="1"/><path id="eGYctV4rAMm30" d="M305.300000,38.700000L305.300000,44.300000L314.900000,44.300000L314.900000,46.500000L305.300000,46.500000L305.300000,52.700000L315.300000,52.700000L315.300000,54.900000L302.900000,54.900000L302.900000,36.500000L315.300000,36.500000L315.300000,38.700000L305.300000,38.700000Z" fill="rgb(255,255,255)" stroke="none" stroke-width="1"/><path id="eGYctV4rAMm31" d="M321.600000,54.800000L321.600000,36.500000L330.900000,36.500000C332.500000,36.500000,333.800000,36.800000,334.600000,37.300000C335.300000,37.800000,335.800000,38.500000,336.100000,39.500000C336.300000,40.100000,336.300000,40.900000,336.300000,41.800000C336.300000,43.400000,336.100000,44.500000,335.700000,45.200000C335.300000,46,334.500000,46.400000,333.300000,46.500000C335.100000,46.600000,336,47.800000,336,50L336,54.800000L333.500000,54.800000L333.500000,50.500000C333.500000,49.400000,333.200000,48.600000,332.700000,48.200000C332.200000,47.800000,331.400000,47.600000,330.300000,47.700000L324,47.700000L324,54.900000L321.600000,54.900000ZM324.100000,45.400000L330.200000,45.400000C331.400000,45.400000,332.300000,45.200000,332.900000,44.900000C333.500000,44.500000,333.900000,43.700000,333.900000,42.500000C333.900000,40.900000,333.800000,39.900000,333.500000,39.400000C333.100000,38.900000,332.300000,38.600000,331,38.600000L324.200000,38.600000L324.200000,45.400000Z" fill="rgb(255,255,255)" stroke="none" stroke-width="1"/></g><g id="eGYctV4rAMm32"><g id="eGYctV4rAMm33"><rect id="eGYctV4rAMm34" width="172" height="1" rx="0" ry="0" transform="matrix(1 0 0 1 109.09999999999999 63.40000000000000)" fill="rgb(255,255,255)" stroke="none" stroke-width="1"/></g><g id="eGYctV4rAMm35"><rect id="eGYctV4rAMm36" width="10.100000" height="1" rx="0" ry="0" transform="matrix(1 0 0 1 283.19999999999999 63.40000000000000)" fill="rgb(255,255,255)" stroke="none" stroke-width="1"/></g><g id="eGYctV4rAMm37"><rect id="eGYctV4rAMm38" width="5.700000" height="1" rx="0" ry="0" transform="matrix(1 0 0 1 294.69999999999999 63.40000000000000)" fill="rgb(255,255,255)" stroke="none" stroke-width="1"/></g></g></g></g><script><![CDATA[!function(t,n){"object"==typeof exports&&"undefined"!=typeof module?module.exports=n():"function"==typeof define&&define.amd?define(n):(t="undefined"!=typeof globalThis?globalThis:t||self).__SVGATOR_PLAYER__=n()}(this,(function(){"use strict";function t(n){return(t="function"==typeof Symbol&&"symbol"==typeof Symbol.iterator?function(t){return typeof t}:function(t){return t&&"function"==typeof Symbol&&t.constructor===Symbol&&t!==Symbol.prototype?"symbol":typeof t})(n)}function n(t,n){if(!(t instanceof n))throw new TypeError("Cannot call a class as a function")}function r(t,n){for(var r=0;r<n.length;r++){var e=n[r];e.enumerable=e.enumerable||!1,e.configurable=!0,"value"in e&&(e.writable=!0),Object.defineProperty(t,e.key,e)}}function e(t,n,e){return n&&r(t.prototype,n),e&&r(t,e),t}function i(t){return(i=Object.setPrototypeOf?Object.getPrototypeOf:function(t){return t.__proto__||Object.getPrototypeOf(t)})(t)}function o(t,n){return(o=Object.setPrototypeOf||function(t,n){return t.__proto__=n,t})(t,n)}function u(t,n){return!n||"object"!=typeof n&&"function"!=typeof n?function(t){if(void 0===t)throw new ReferenceError("this hasn't been initialised - super() hasn't been called");return t}(t):n}function a(t){var n=function(){if("undefined"==typeof Reflect||!Reflect.construct)return!1;if(Reflect.construct.sham)return!1;if("function"==typeof Proxy)return!0;try{return Boolean.prototype.valueOf.call(Reflect.construct(Boolean,[],(function(){}))),!0}catch(t){return!1}}();return function(){var r,e=i(t);if(n){var o=i(this).constructor;r=Reflect.construct(e,arguments,o)}else r=e.apply(this,arguments);return u(this,r)}}function l(t,n,r){return(l="undefined"!=typeof Reflect&&Reflect.get?Reflect.get:function(t,n,r){var e=function(t,n){for(;!Object.prototype.hasOwnProperty.call(t,n)&&null!==(t=i(t)););return t}(t,n);if(e){var o=Object.getOwnPropertyDescriptor(e,n);return o.get?o.get.call(r):o.value}})(t,n,r||t)}var f=Math.abs;function s(t){return t}function c(t,n,r){var e=1-r;return 3*r*e*(t*e+n*r)+r*r*r}function h(){var t=arguments.length>0&&void 0!==arguments[0]?arguments[0]:0,n=arguments.length>1&&void 0!==arguments[1]?arguments[1]:0,r=arguments.length>2&&void 0!==arguments[2]?arguments[2]:1,e=arguments.length>3&&void 0!==arguments[3]?arguments[3]:1;return t<0||t>1||r<0||r>1?null:f(t-n)<=1e-5&&f(r-e)<=1e-5?s:function(i){if(i<=0)return t>0?i*n/t:0===n&&r>0?i*e/r:0;if(i>=1)return r<1?1+(i-1)*(e-1)/(r-1):1===r&&t<1?1+(i-1)*(n-1)/(t-1):1;for(var o,u=0,a=1;u<a;){var l=c(t,r,o=(u+a)/2);if(f(i-l)<1e-5)break;l<i?u=o:a=o}return c(n,e,o)}}function v(){return 1}function y(t){return 1===t?1:0}function d(){var t=arguments.length>0&&void 0!==arguments[0]?arguments[0]:1,n=arguments.length>1&&void 0!==arguments[1]?arguments[1]:0;if(1===t){if(0===n)return y;if(1===n)return v}var r=1/t;return function(t){return t>=1?1:(t+=n*r)-t%r}}function g(t){var n=arguments.length>1&&void 0!==arguments[1]?arguments[1]:2;if(Number.isInteger(t))return t;var r=Math.pow(10,n);return Math.round(t*r)/r}var p=Math.PI/180;function m(t,n,r){return t>=.5?r:n}function b(t,n,r){return 0===t||n===r?n:t*(r-n)+n}function w(t,n,r){var e=b(t,n,r);return e<=0?0:e}function x(t,n,r){return 0===t?n:1===t?r:{x:b(t,n.x,r.x),y:b(t,n.y,r.y)}}function k(t,n,r){var e=function(t,n,r){return Math.round(b(t,n,r))}(t,n,r);return e<=0?0:e>=255?255:e}function A(t,n,r){return 0===t?n:1===t?r:{r:k(t,n.r,r.r),g:k(t,n.g,r.g),b:k(t,n.b,r.b),a:b(t,null==n.a?1:n.a,null==r.a?1:r.a)}}function _(t,n,r){if(0===t)return n;if(1===t)return r;var e=n.length;if(e!==r.length)return m(t,n,r);for(var i=[],o=0;o<e;o++)i.push(A(t,n[o],r[o]));return i}function S(t,n){for(var r=[],e=0;e<t;e++)r.push(n);return r}function O(t,n){if(--n<=0)return t;var r=(t=Object.assign([],t)).length;do{for(var e=0;e<r;e++)t.push(t[e])}while(--n>0);return t}var M,j=function(){function t(r){n(this,t),this.list=r,this.length=r.length}return e(t,[{key:"setAttribute",value:function(t,n){for(var r=this.list,e=0;e<this.length;e++)r[e].setAttribute(t,n)}},{key:"removeAttribute",value:function(t){for(var n=this.list,r=0;r<this.length;r++)n[r].removeAttribute(t)}},{key:"style",value:function(t,n){for(var r=this.list,e=0;e<this.length;e++)r[e].style[t]=n}}]),t}(),F=/-./g,P=function(t,n){return n.toUpperCase()};function B(t){return"function"==typeof t?t:m}function I(t){return t?"function"==typeof t?t:Array.isArray(t)?function(t){var n=arguments.length>1&&void 0!==arguments[1]?arguments[1]:s;if(!Array.isArray(t))return n;switch(t.length){case 1:return d(t[0])||n;case 2:return d(t[0],t[1])||n;case 4:return h(t[0],t[1],t[2],t[3])||n}return n}(t,null):function(t,n){var r=arguments.length>2&&void 0!==arguments[2]?arguments[2]:s;switch(t){case"linear":return s;case"steps":return d(n.steps||1,n.jump||0)||r;case"bezier":case"cubic-bezier":return h(n.x1||0,n.y1||0,n.x2||0,n.y2||0)||r}return r}(t.type,t.value,null):null}function R(t,n,r){var e=arguments.length>3&&void 0!==arguments[3]&&arguments[3],i=n.length-1;if(t<=n[0].t)return e?[0,0,n[0].v]:n[0].v;if(t>=n[i].t)return e?[i,1,n[i].v]:n[i].v;var o,u=n[0],a=null;for(o=1;o<=i;o++){if(!(t>n[o].t)){a=n[o];break}u=n[o]}return null==a?e?[i,1,n[i].v]:n[i].v:u.t===a.t?e?[o,1,a.v]:a.v:(t=(t-u.t)/(a.t-u.t),u.e&&(t=u.e(t)),e?[o,t,r(t,u.v,a.v)]:r(t,u.v,a.v))}function q(t,n){var r=arguments.length>2&&void 0!==arguments[2]?arguments[2]:null;return t&&t.length?"function"!=typeof n?null:("function"!=typeof r&&(r=null),function(e){var i=R(e,t,n);return null!=i&&r&&(i=r(i)),i}):null}function E(t,n){return t.t-n.t}function T(n,r,e,i,o){var u,a="@"===e[0],l="#"===e[0],f=M[e],s=m;switch(a?(u=e.substr(1),e=u.replace(F,P)):l&&(e=e.substr(1)),t(f)){case"function":if(s=f(i,o,R,I,e,a,r,n),l)return s;break;case"string":s=q(i,B(f));break;case"object":if((s=q(i,B(f.i),f.f))&&"function"==typeof f.u)return f.u(r,s,e,a,n)}return s?function(t,n,r){var e=arguments.length>3&&void 0!==arguments[3]&&arguments[3];if(e)return t instanceof j?function(e){return t.style(n,r(e))}:function(e){return t.style[n]=r(e)};if(Array.isArray(n)){var i=n.length;return function(e){var o=r(e);if(null==o)for(var u=0;u<i;u++)t[u].removeAttribute(n);else for(var a=0;a<i;a++)t[a].setAttribute(n,o)}}return function(e){var i=r(e);null==i?t.removeAttribute(n):t.setAttribute(n,i)}}(r,e,s,a):null}function N(n,r,e,i){if(!i||"object"!==t(i))return null;var o=null,u=null;return Array.isArray(i)?u=function(t){if(!t||!t.length)return null;for(var n=0;n<t.length;n++)t[n].e&&(t[n].e=I(t[n].e));return t.sort(E)}(i):(u=i.keys,o=i.data||null),u?T(n,r,e,u,o):null}function C(t,n,r){if(!r)return null;var e=[];for(var i in r)if(r.hasOwnProperty(i)){var o=N(t,n,i,r[i]);o&&e.push(o)}return e.length?e:null}function z(t,n){if(!n.duration||n.duration<0)return null;var r=function(t,n){if(!n)return null;var r=[];if(Array.isArray(n))for(var e=n.length,i=0;i<e;i++){var o=n[i];if(2===o.length){var u=null;if("string"==typeof o[0])u=t.getElementById(o[0]);else if(Array.isArray(o[0])){u=[];for(var a=0;a<o[0].length;a++)if("string"==typeof o[0][a]){var l=t.getElementById(o[0][a]);l&&u.push(l)}u=u.length?1===u.length?u[0]:new j(u):null}if(u){var f=C(t,u,o[1]);f&&(r=r.concat(f))}}}else for(var s in n)if(n.hasOwnProperty(s)){var c=t.getElementById(s);if(c){var h=C(t,c,n[s]);h&&(r=r.concat(h))}}return r.length?r:null}(t,n.elements);return r?function(t,n){var r=arguments.length>2&&void 0!==arguments[2]?arguments[2]:1/0,e=arguments.length>3&&void 0!==arguments[3]?arguments[3]:1,i=arguments.length>4&&void 0!==arguments[4]&&arguments[4],o=arguments.length>5&&void 0!==arguments[5]?arguments[5]:1,u=t.length,a=e>0?n:0;i&&r%2==0&&(a=n-a);var l=null;return function(f,s){var c=f%n,h=1+(f-c)/n;s*=e,i&&h%2==0&&(s=-s);var v=!1;if(h>r)c=a,v=!0,-1===o&&(c=e>0?0:n);else if(s<0&&(c=n-c),c===l)return!1;l=c;for(var y=0;y<u;y++)t[y](c);return v}}(r,n.duration,n.iterations||1/0,n.direction||1,!!n.alternate,n.fill||1):null}var L=function(){function t(r,e){var i=arguments.length>2&&void 0!==arguments[2]?arguments[2]:{};n(this,t),this._id=0,this._running=!1,this._rollingBack=!1,this._animations=r,this.duration=e.duration,this.alternate=e.alternate,this.fill=e.fill,this.iterations=e.iterations,this.direction=i.direction||1,this.speed=i.speed||1,this.fps=i.fps||100,this.offset=i.offset||0,this.rollbackStartOffset=0}return e(t,[{key:"_rollback",value:function(){var t=this,n=1/0,r=null;this.rollbackStartOffset=this.offset,this._rollingBack||(this._rollingBack=!0,this._running=!0);this._id=window.requestAnimationFrame((function e(i){if(t._rollingBack){null==r&&(r=i);var o=i-r,u=t.rollbackStartOffset-o,a=Math.round(u*t.speed);if(a>t.duration&&n!=1/0){var l=!!t.alternate&&a/t.duration%2>1,f=a%t.duration;a=(f+=l?t.duration:0)||t.duration}var s=t.fps?1e3/t.fps:0,c=Math.max(0,a);if(c<n-s){t.offset=c,n=c;for(var h=t._animations,v=h.length,y=0;y<v;y++)h[y](c,t.direction)}var d=!1;if(t.iterations>0&&-1===t.fill){var g=t.iterations*t.duration,p=g==a;a=p?0:a,t.offset=p?0:t.offset,d=a>g}a>0&&t.offset>=a&&!d?t._id=window.requestAnimationFrame(e):t.stop()}}))}},{key:"_start",value:function(){var t=this,n=arguments.length>0&&void 0!==arguments[0]?arguments[0]:0,r=-1/0,e=null,i={},o=function o(u){t._running=!0,null==e&&(e=u);var a=Math.round((u-e+n)*t.speed),l=t.fps?1e3/t.fps:0;if(a>r+l&&!t._rollingBack){t.offset=a,r=a;for(var f=t._animations,s=f.length,c=0,h=0;h<s;h++)i[h]?c++:(i[h]=f[h](a,t.direction),i[h]&&c++);if(c===s)return void t._stop()}t._id=window.requestAnimationFrame(o)};this._id=window.requestAnimationFrame(o)}},{key:"_stop",value:function(){this._id&&window.cancelAnimationFrame(this._id),this._running=!1,this._rollingBack=!1}},{key:"play",value:function(){!this._rollingBack&&this._running||(this._rollingBack=!1,this.rollbackStartOffset>this.duration&&(this.offset=this.rollbackStartOffset-(this.rollbackStartOffset-this.offset)%this.duration,this.rollbackStartOffset=0),this._start(this.offset))}},{key:"stop",value:function(){this._stop(),this.offset=0,this.rollbackStartOffset=0;var t=this.direction,n=this._animations;window.requestAnimationFrame((function(){for(var r=0;r<n.length;r++)n[r](0,t)}))}},{key:"reachedToEnd",value:function(){return this.iterations>0&&this.offset>=this.iterations*this.duration}},{key:"restart",value:function(){this._stop(),this.offset=0,this._start()}},{key:"pause",value:function(){this._stop()}},{key:"reverse",value:function(){this.direction=-this.direction}}],[{key:"build",value:function(n,r){return(n=function(t,n){if(M=n,!t||!t.root||!Array.isArray(t.animations))return null;for(var r=document.getElementsByTagName("svg"),e=!1,i=0;i<r.length;i++)if(r[i].id===t.root&&!r[i].svgatorAnimation){(e=r[i]).svgatorAnimation=!0;break}if(!e)return null;var o=t.animations.map((function(t){return z(e,t)})).filter((function(t){return!!t}));return o.length?{element:e,animations:o,animationSettings:t.animationSettings,options:t.options||void 0}:null}(n,r))?{el:n.element,options:n.options||{},player:new t(n.animations,n.animationSettings,n.options)}:null}}]),t}();!function(){for(var t=0,n=["ms","moz","webkit","o"],r=0;r<n.length&&!window.requestAnimationFrame;++r)window.requestAnimationFrame=window[n[r]+"RequestAnimationFrame"],window.cancelAnimationFrame=window[n[r]+"CancelAnimationFrame"]||window[n[r]+"CancelRequestAnimationFrame"];window.requestAnimationFrame||(window.requestAnimationFrame=function(n){var r=Date.now(),e=Math.max(0,16-(r-t)),i=window.setTimeout((function(){n(r+e)}),e);return t=r+e,i},window.cancelAnimationFrame=window.clearTimeout)}();var D=/\.0+$/g;function Q(t){return Number.isInteger(t)?t+"":t.toFixed(6).replace(D,"")}function U(t){var n=arguments.length>1&&void 0!==arguments[1]?arguments[1]:" ";return t&&t.length?t.map(Q).join(n):""}function V(t){return t?null==t.a||t.a>=1?"rgb("+t.r+","+t.g+","+t.b+")":"rgba("+t.r+","+t.g+","+t.b+","+t.a+")":"transparent"}var $={f:null,i:function(t,n,r){return 0===t?n:1===t?r:{x:w(t,n.x,r.x),y:w(t,n.y,r.y)}},u:function(t,n){return function(r){var e=n(r);t.setAttribute("rx",Q(e.x)),t.setAttribute("ry",Q(e.y))}}},G={f:null,i:function(t,n,r){return 0===t?n:1===t?r:{width:w(t,n.width,r.width),height:w(t,n.height,r.height)}},u:function(t,n){return function(r){var e=n(r);t.setAttribute("width",Q(e.width)),t.setAttribute("height",Q(e.height))}}},H=Math.sin,Y=Math.cos,Z=Math.acos,J=Math.asin,K=Math.tan,W=Math.atan2,X=Math.PI/180,tt=180/Math.PI,nt=Math.sqrt,rt=function(){function t(){var r=arguments.length>0&&void 0!==arguments[0]?arguments[0]:1,e=arguments.length>1&&void 0!==arguments[1]?arguments[1]:0,i=arguments.length>2&&void 0!==arguments[2]?arguments[2]:0,o=arguments.length>3&&void 0!==arguments[3]?arguments[3]:1,u=arguments.length>4&&void 0!==arguments[4]?arguments[4]:0,a=arguments.length>5&&void 0!==arguments[5]?arguments[5]:0;n(this,t),this.m=[r,e,i,o,u,a],this.i=null,this.w=null,this.s=null}return e(t,[{key:"determinant",get:function(){var t=this.m;return t[0]*t[3]-t[1]*t[2]}},{key:"isIdentity",get:function(){if(null===this.i){var t=this.m;this.i=1===t[0]&&0===t[1]&&0===t[2]&&1===t[3]&&0===t[4]&&0===t[5]}return this.i}},{key:"point",value:function(t,n){var r=this.m;return{x:r[0]*t+r[2]*n+r[4],y:r[1]*t+r[3]*n+r[5]}}},{key:"translateSelf",value:function(){var t=arguments.length>0&&void 0!==arguments[0]?arguments[0]:0,n=arguments.length>1&&void 0!==arguments[1]?arguments[1]:0;if(!t&&!n)return this;var r=this.m;return r[4]+=r[0]*t+r[2]*n,r[5]+=r[1]*t+r[3]*n,this.w=this.s=this.i=null,this}},{key:"rotateSelf",value:function(){var t=arguments.length>0&&void 0!==arguments[0]?arguments[0]:0;if(t%=360){var n=H(t*=X),r=Y(t),e=this.m,i=e[0],o=e[1];e[0]=i*r+e[2]*n,e[1]=o*r+e[3]*n,e[2]=e[2]*r-i*n,e[3]=e[3]*r-o*n,this.w=this.s=this.i=null}return this}},{key:"scaleSelf",value:function(){var t=arguments.length>0&&void 0!==arguments[0]?arguments[0]:1,n=arguments.length>1&&void 0!==arguments[1]?arguments[1]:1;if(1!==t||1!==n){var r=this.m;r[0]*=t,r[1]*=t,r[2]*=n,r[3]*=n,this.w=this.s=this.i=null}return this}},{key:"skewSelf",value:function(t,n){if(n%=360,(t%=360)||n){var r=this.m,e=r[0],i=r[1],o=r[2],u=r[3];t&&(t=K(t*X),r[2]+=e*t,r[3]+=i*t),n&&(n=K(n*X),r[0]+=o*n,r[1]+=u*n),this.w=this.s=this.i=null}return this}},{key:"resetSelf",value:function(){var t=arguments.length>0&&void 0!==arguments[0]?arguments[0]:1,n=arguments.length>1&&void 0!==arguments[1]?arguments[1]:0,r=arguments.length>2&&void 0!==arguments[2]?arguments[2]:0,e=arguments.length>3&&void 0!==arguments[3]?arguments[3]:1,i=arguments.length>4&&void 0!==arguments[4]?arguments[4]:0,o=arguments.length>5&&void 0!==arguments[5]?arguments[5]:0,u=this.m;return u[0]=t,u[1]=n,u[2]=r,u[3]=e,u[4]=i,u[5]=o,this.w=this.s=this.i=null,this}},{key:"recomposeSelf",value:function(){var t=arguments.length>0&&void 0!==arguments[0]?arguments[0]:null,n=arguments.length>1&&void 0!==arguments[1]?arguments[1]:null,r=arguments.length>2&&void 0!==arguments[2]?arguments[2]:null,e=arguments.length>3&&void 0!==arguments[3]?arguments[3]:null,i=arguments.length>4&&void 0!==arguments[4]?arguments[4]:null;return this.isIdentity||this.resetSelf(),t&&(t.x||t.y)&&this.translateSelf(t.x,t.y),n&&this.rotateSelf(n),r&&(r.x&&this.skewSelf(r.x,0),r.y&&this.skewSelf(0,r.y)),!e||1===e.x&&1===e.y||this.scaleSelf(e.x,e.y),i&&(i.x||i.y)&&this.translateSelf(i.x,i.y),this}},{key:"decompose",value:function(){var t=arguments.length>0&&void 0!==arguments[0]?arguments[0]:0,n=arguments.length>1&&void 0!==arguments[1]?arguments[1]:0,r=this.m,e=r[0]*r[0]+r[1]*r[1],i=[[r[0],r[1]],[r[2],r[3]]],o=nt(e);if(0===o)return{origin:{x:r[4],y:r[5]},translate:{x:t,y:n},scale:{x:0,y:0},skew:{x:0,y:0},rotate:0};i[0][0]/=o,i[0][1]/=o;var u=r[0]*r[3]-r[1]*r[2]<0;u&&(o=-o);var a=i[0][0]*i[1][0]+i[0][1]*i[1][1];i[1][0]-=i[0][0]*a,i[1][1]-=i[0][1]*a;var l=nt(i[1][0]*i[1][0]+i[1][1]*i[1][1]);if(0===l)return{origin:{x:r[4],y:r[5]},translate:{x:t,y:n},scale:{x:o,y:0},skew:{x:0,y:0},rotate:0};i[1][0]/=l,i[1][1]/=l,a/=l;var f=0;return i[1][1]<0?(f=Z(i[1][1])*tt,i[0][1]<0&&(f=360-f)):f=J(i[0][1])*tt,u&&(f=-f),a=W(a,nt(i[0][0]*i[0][0]+i[0][1]*i[0][1]))*tt,u&&(a=-a),{origin:{x:r[4],y:r[5]},translate:{x:t,y:n},scale:{x:o,y:l},skew:{x:a,y:0},rotate:f}}},{key:"toString",value:function(){return null===this.s&&(this.s="matrix("+this.m.map(it).join(" ")+")"),this.s}}]),t}(),et=/\.0+$/;function it(t){return Number.isInteger(t)?t:t.toFixed(14).replace(et,"")}function ot(t,n,r){return t+(n-t)*r}function ut(t,n,r){var e=arguments.length>3&&void 0!==arguments[3]&&arguments[3],i={x:ot(t.x,n.x,r),y:ot(t.y,n.y,r)};return e&&(i.a=at(t,n)),i}function at(t,n){return Math.atan2(n.y-t.y,n.x-t.x)}Object.freeze({M:2,L:2,Z:0,H:1,V:1,C:6,Q:4,T:2,S:4,A:7});var lt={},ft=null;function st(n){var r=function(){if(ft)return ft;if("object"!==("undefined"==typeof document?"undefined":t(document)))return{};var n=document.createElementNS("http://www.w3.org/2000/svg","svg");return n.style.position="absolute",n.style.opacity="0.01",n.style.zIndex="-9999",n.style.left="-9999px",n.style.width="1px",n.style.height="1px",ft={svg:n}}().svg;if(!r)return function(t){return null};var e=document.createElementNS(r.namespaceURI,"path");e.setAttributeNS(null,"d",n),e.setAttributeNS(null,"fill","none"),e.setAttributeNS(null,"stroke","none"),r.appendChild(e);var i=e.getTotalLength();return function(t){var n=e.getPointAtLength(i*t);return{x:n.x,y:n.y}}}function ct(t){return lt[t]?lt[t]:lt[t]=st(t)}function ht(t,n,r,e){if(!t||!e)return!1;var i=["M",t.x,t.y];if(n&&r&&(i.push("C"),i.push(n.x),i.push(n.y),i.push(r.x),i.push(r.y)),n?!r:r){var o=n||r;i.push("Q"),i.push(o.x),i.push(o.y)}return n||r||i.push("L"),i.push(e.x),i.push(e.y),i.join(" ")}function vt(t,n,r,e){var i=arguments.length>4&&void 0!==arguments[4]?arguments[4]:1,o=ht(t,n,r,e),u=ct(o);try{return u(i)}catch(t){return null}}function yt(t,n,r,e){var i=1-e;return i*i*t+2*i*e*n+e*e*r}function dt(t,n,r,e){return 2*(1-e)*(n-t)+2*e*(r-n)}function gt(t,n,r,e){var i=arguments.length>4&&void 0!==arguments[4]&&arguments[4],o=vt(t,n,null,r,e);return o||(o={x:yt(t.x,n.x,r.x,e),y:yt(t.y,n.y,r.y,e)}),i&&(o.a=pt(t,n,r,e)),o}function pt(t,n,r,e){return Math.atan2(dt(t.y,n.y,r.y,e),dt(t.x,n.x,r.x,e))}function mt(t,n,r,e,i){var o=i*i;return i*o*(e-t+3*(n-r))+3*o*(t+r-2*n)+3*i*(n-t)+t}function bt(t,n,r,e,i){var o=1-i;return 3*(o*o*(n-t)+2*o*i*(r-n)+i*i*(e-r))}function wt(t,n,r,e,i){var o=arguments.length>5&&void 0!==arguments[5]&&arguments[5],u=vt(t,n,r,e,i);return u||(u={x:mt(t.x,n.x,r.x,e.x,i),y:mt(t.y,n.y,r.y,e.y,i)}),o&&(u.a=xt(t,n,r,e,i)),u}function xt(t,n,r,e,i){return Math.atan2(bt(t.y,n.y,r.y,e.y,i),bt(t.x,n.x,r.x,e.x,i))}function kt(t,n,r){var e=arguments.length>3&&void 0!==arguments[3]&&arguments[3];if(_t(n)){if(St(r))return gt(n,r.start,r,t,e)}else if(_t(r)){if(n.end)return gt(n,n.end,r,t,e)}else{if(n.end)return r.start?wt(n,n.end,r.start,r,t,e):gt(n,n.end,r,t,e);if(r.start)return gt(n,r.start,r,t,e)}return ut(n,r,t,e)}function At(t,n,r){var e=kt(t,n,r,!0);return e.a=function(t){var n=arguments.length>1&&void 0!==arguments[1]&&arguments[1];return n?t+Math.PI:t}(e.a)/p,e}function _t(t){return!t.type||"corner"===t.type}function St(t){return null!=t.start&&!_t(t)}var Ot=new rt;var Mt={f:Q,i:b},jt={f:Q,i:function(t,n,r){var e=b(t,n,r);return e<=0?0:e>=1?1:e}};function Ft(t,n,r,e,i,o,u,a){return n=function(t,n,r){for(var e,i,o,u=t.length-1,a={},l=0;l<=u;l++)(e=t[l]).e&&(e.e=n(e.e)),e.v&&"g"===(i=e.v).t&&i.r&&(o=r.getElementById(i.r))&&(a[i.r]=o.querySelectorAll("stop"));return a}(t,e,a),function(e){var i,o=r(e,t,Pt);return o?"c"===o.t?V(o.v):"g"===o.t?(n[o.r]&&function(t,n){for(var r=0,e=t.length;r<e;r++)t[r].setAttribute("stop-color",V(n[r]))}(n[o.r],o.v),(i=o.r)?"url(#"+i+")":"none"):"none":"none"}}function Pt(t,n,r){if(0===t)return n;if(1===t)return r;if(n&&r){var e=n.t;if(e===r.t)switch(n.t){case"c":return{t:e,v:A(t,n.v,r.v)};case"g":if(n.r===r.r)return{t:e,v:_(t,n.v,r.v),r:n.r}}}return m(t,n,r)}var Bt={fill:Ft,"fill-opacity":jt,stroke:Ft,"stroke-opacity":jt,"stroke-width":Mt,"stroke-dashoffset":{f:Q,i:b},"stroke-dasharray":{f:function(t){var n=arguments.length>1&&void 0!==arguments[1]?arguments[1]:" ";return t&&t.length>0&&(t=t.map((function(t){return Math.floor(1e4*t)/1e4}))),U(t,n)},i:function(t,n,r){var e,i,o,u=n.length,a=r.length;if(u!==a)if(0===u)n=S(u=a,0);else if(0===a)a=u,r=S(u,0);else{var l=(o=(e=u)*(i=a)/function(t,n){for(var r;n;)r=n,n=t%n,t=r;return t||1}(e,i))<0?-o:o;n=O(n,Math.floor(l/u)),r=O(r,Math.floor(l/a)),u=a=l}for(var f=[],s=0;s<u;s++)f.push(g(w(t,n[s],r[s]),6));return f}},opacity:jt,transform:function(n,r,e,i){if(!(n=function(n,r){if(!n||"object"!==t(n))return null;var e=!1;for(var i in n)n.hasOwnProperty(i)&&(n[i]&&n[i].length?(n[i].forEach((function(t){t.e&&(t.e=r(t.e))})),e=!0):delete n[i]);return e?n:null}(n,i)))return null;var o=function(t,i,o){var u=arguments.length>3&&void 0!==arguments[3]?arguments[3]:null;return n[t]?e(i,n[t],o):r&&r[t]?r[t]:u};return r&&r.a&&n.o?function(t){var r=e(t,n.o,At);return Ot.recomposeSelf(r,o("r",t,b,0)+r.a,o("k",t,x),o("s",t,x),o("t",t,x)).toString()}:function(t){return Ot.recomposeSelf(o("o",t,kt,null),o("r",t,b,0),o("k",t,x),o("s",t,x),o("t",t,x)).toString()}},r:Mt,"#size":G,"#radius":$,_:function(t,n){if(Array.isArray(t))for(var r=0;r<t.length;r++)this[t[r]]=n;else this[t]=n}};return function(t){!function(t,n){if("function"!=typeof n&&null!==n)throw new TypeError("Super expression must either be null or a function");t.prototype=Object.create(n&&n.prototype,{constructor:{value:t,writable:!0,configurable:!0}}),n&&o(t,n)}(u,t);var r=a(u);function u(){return n(this,u),r.apply(this,arguments)}return e(u,null,[{key:"build",value:function(t){var n=l(i(u),"build",this).call(this,t,Bt);n.el,n.options;var r=n.player;return function(t,n,r){t.play()}(r),r}}]),u}(L)}));
__SVGATOR_PLAYER__.build({"root":"eGYctV4rAMm1","animations":[{"duration":3000,"direction":1,"iterations":1,"fill":1,"alternate":false,"speed":1,"elements":{"eGYctV4rAMm3":{"transform":{"data":{"t":{"x":-48.5,"y":-47.201171875}},"keys":{"o":[{"t":0,"v":{"x":88.25000153000002,"y":47.201171875,"type":"corner"},"e":[0.42,0,0.58,1]},{"t":1300,"v":{"x":48.5,"y":47.201171875,"type":"corner"}}]}},"opacity":[{"t":500,"v":0},{"t":1100,"v":1}]},"eGYctV4rAMm6":{"opacity":[{"t":800,"v":0},{"t":2500,"v":1}]},"eGYctV4rAMm8":{"opacity":[{"t":300,"v":0},{"t":2500,"v":1}]},"eGYctV4rAMm10":{"opacity":[{"t":0,"v":0},{"t":2500,"v":1}]},"eGYctV4rAMm12":{"opacity":[{"t":1300,"v":0},{"t":2500,"v":1}]},"eGYctV4rAMm14":{"opacity":[{"t":2300,"v":0},{"t":2500,"v":0.5}]},"eGYctV4rAMm18":{"transform":{"data":{"t":{"x":-222.70038604736328,"y":-50.25078201293945}},"keys":{"o":[{"t":600,"v":{"x":156.0003875773633,"y":50.25078201293945,"type":"corner"},"e":[0.555,-0.03,0.315,0.965]},{"t":2000,"v":{"x":222.70038604736328,"y":50.25078201293945,"type":"corner"}}]}},"opacity":[{"t":1200,"v":0},{"t":2000,"v":1}]}}}],"options":{"start":"load","hover":"freeze","click":"freeze","scroll":25,"font":"embed","exportedIds":"unique","svgFormat":"animated","title":"frameshifter-logo"},"animationSettings":{"duration":3000,"direction":1,"iterations":1,"fill":1,"alternate":false,"speed":1}})]]></script></svg>