<?xml version="1.0" encoding="utf-8"?>
<!-- Generator: Adobe Illustrator 24.1.1, SVG Export Plug-In . SVG Version: 6.00 Build 0)  -->
<svg version="1.1" id="Layer_1" xmlns="http://www.w3.org/2000/svg" xmlns:xlink="http://www.w3.org/1999/xlink" x="0px" y="0px"
	 viewBox="0 0 600 600" style="enable-background:new 0 0 600 600;" xml:space="preserve">
<style type="text/css">
	.st0{fill:#FFFFFF;}
</style>
<path class="st0" d="M299.7,24.6c-152,0-275.6,123.6-275.6,275.6s123.6,275.6,275.6,275.6s275.6-123.6,275.6-275.6
	S451.7,24.6,299.7,24.6z M299.7,559.3c-142.9,0-259.1-116.2-259.1-259.1S156.9,41.1,299.7,41.1c96.1,0,180.2,52.6,224.9,130.6
	c-8.9,10.1-17.8,19.3-27,27.7c-38.5-59.6-105.6-99.1-181.6-99.1c-10.2,0-20.3,0.7-30.2,2.1c-8.4-1.4-17.1-2.1-26-2.1
	c-7.9,0-15.7,0.6-23.3,1.7c-6.5-1.1-13.1-1.7-19.9-1.7c-5.5,0-10.9,0.4-16.1,1.1c-4.5-0.7-9.2-1.1-13.9-1.1
	c-47.9,0-86.9,39-86.9,86.9c0,4.7,0.4,9.4,1.1,13.9c-0.7,5.3-1.1,10.7-1.1,16.1c0,6.8,0.6,13.4,1.7,19.9c-1.1,7.6-1.7,15.4-1.7,23.3
	c0,8.8,0.7,17.5,2.1,26c-1.4,9.9-2.1,19.9-2.1,30.2c0,119.2,97,216.2,216.2,216.2s216.2-97,216.2-216.2c0-42-12-81.2-32.8-114.4
	c9.1-8.3,18.1-17.5,26.9-27.4c20.7,37.2,32.5,80,32.5,125.5C558.8,443.1,442.6,559.3,299.7,559.3z M104,296.8
	c16.5,70.8,80.2,123.7,155.9,123.7c88.3,0,160.1-71.8,160.1-160.1c0-2.8-0.1-5.5-0.2-8.2c26.7-9.7,52.4-25.7,77.2-47.8
	c20.3,32.6,32,71,32,112.2c0,117.4-95.5,213-213,213s-213-95.5-213-213C103.1,309.9,103.4,303.3,104,296.8z M103.1,260.4
	c0-4.5,0.2-9,0.6-13.4c1.1,4.1,2.4,8.2,3.9,12.1c-1.5,5.3-2.7,10.7-3.8,16.2C103.3,270.4,103.1,265.4,103.1,260.4z M103.1,217.3
	c0-2,0.1-4,0.2-5.9c0.7,2.3,1.4,4.6,2.3,6.8c-0.8,2.8-1.4,5.5-2,8.4C103.2,223.5,103.1,220.4,103.1,217.3z M103.1,187.3
	c0-22.2,8.7-42.5,23-57.5c1.2,1.5,3.1,3.9,5.9,7.2c-13.8,14.6-23.9,32.6-28.7,52.7C103.1,188.8,103.1,188.1,103.1,187.3z
	 M162.2,164.8c-5.2-5.1-9.9-9.9-14-14.3c18.9-19.2,42.6-33.5,69.2-41c5.3,2.1,10.3,4.7,15,7.7C205.9,128.3,182.1,144.6,162.2,164.8z
	 M235.6,119.3c21.1,15.2,34.9,40,34.9,67.9c0,17.4-5.3,33.5-14.4,46.9c-37.4-19.1-69-45.3-91.5-67.2
	C184.6,146.7,208.7,130.3,235.6,119.3z M159.9,167.1c-18.2,19-32.9,41.3-43.3,65.8c-3.1-4.7-5.7-9.7-7.7-15
	c7-24.7,19.9-47,37.1-65.2C150.1,157.2,154.7,162,159.9,167.1z M162.3,169.3c22.6,21.9,54.3,48.2,91.9,67.5
	c-15.3,20.7-39.8,34.1-67.4,34.1c-27.9,0-52.7-13.8-67.9-34.9C129.1,211.1,143.9,188.5,162.3,169.3z M186.8,274.2
	c28.9,0,54.5-14.2,70.3-35.9c20.2,10.1,42,18,64.9,22.1c-17,41.4-57.8,70.6-105.2,70.6c-48,0-89.2-29.9-105.8-72
	c1.8-6.6,4-13,6.5-19.3C133.3,260.6,158.5,274.2,186.8,274.2z M259,235.7c9.3-13.8,14.8-30.5,14.8-48.4c0-28.3-13.6-53.4-34.6-69.3
	c6.3-2.4,12.7-4.6,19.3-6.5c42.2,16.7,72,57.8,72,105.8c0,14.1-2.6,27.6-7.3,40.1C300.5,253.4,278.9,245.6,259,235.7z M333.8,217.3
	c0-47.9-28.9-89.1-70.2-107.2c7.3-1.8,14.7-3.3,22.2-4.4c70.8,11.8,125.8,71.3,130.6,144.2c-21.3,7.5-43.2,10.9-65.7,10.3
	c-8.2-0.2-16.3-1-24.3-2.3C331.2,245.3,333.8,231.6,333.8,217.3z M258.6,108.1c-3.9-1.5-8-2.8-12.1-3.9c4.4-0.4,8.9-0.6,13.4-0.6
	c5,0,10,0.2,14.9,0.7C269.3,105.3,263.9,106.6,258.6,108.1z M253.3,109.6c-5.9,1.8-11.7,3.8-17.3,6.1c-4.2-2.9-8.7-5.5-13.4-7.6
	c4.6-1.1,9.3-2.1,14-2.8C242.3,106.3,247.9,107.7,253.3,109.6z M217.6,106c-2.2-0.8-4.5-1.6-6.8-2.3c2-0.1,3.9-0.2,5.9-0.2
	c3.1,0,6.2,0.1,9.2,0.4C223.2,104.5,220.4,105.2,217.6,106z M212.3,107.5c-25.4,7.9-48,22-66.3,40.5c-3.8-4.1-7.1-7.8-9.8-11
	c17-17.1,39.4-28.8,64.3-32.3C204.6,105.4,208.5,106.3,212.3,107.5z M134.1,134.6c-2.8-3.3-4.8-5.8-5.8-7.1
	c15.1-14.8,35.7-23.9,58.5-23.9c0.8,0,1.6,0,2.4,0.1C168,108.8,149.1,119.7,134.1,134.6z M134,139.4c2.7,3.1,6,6.8,9.8,10.9
	c-16.6,17.5-29.3,38.8-36.7,62.4c-1.2-3.8-2.2-7.7-2.8-11.7C107.6,177.4,118.3,156,134,139.4z M107.5,223.1
	c2.1,4.7,4.7,9.2,7.6,13.4c-2.3,5.7-4.3,11.4-6.1,17.3c-1.8-5.4-3.3-11-4.3-16.7C105.5,232.4,106.4,227.7,107.5,223.1z M109.6,264.1
	c18.1,41.3,59.3,70.2,107.2,70.2c49.1,0,91.1-30.4,108.5-73.3c8.3,1.4,16.8,2.2,25.3,2.5c1.8,0.1,3.7,0.1,5.5,0.1
	c20.6,0,40.8-3.4,60.5-10.2c0.1,2.4,0.2,4.7,0.2,7.1c0,86.5-70.4,156.9-156.9,156.9c-77.7,0-142.3-56.7-154.7-130.9
	C106.3,278.8,107.7,271.4,109.6,264.1z M419.6,248.8c-5.1-70.6-56.1-128.6-123.3-144.3c6.5-0.6,13.1-0.9,19.7-0.9
	c75.1,0,141.3,39.1,179.2,98C471,223.3,445.7,239.1,419.6,248.8z"/>
</svg>
